<mxfile host="app.diagrams.net" agent="Mozilla/5.0 (Windows NT 10.0; Win64; x64) AppleWebKit/537.36 (KHTML, like Gecko) Chrome/140.0.0.0 Safari/537.36" version="28.1.2">
  <diagram name="Page-1" id="ywB31ply4Zxzy4eI6z0S">
    <mxGraphModel dx="2934" dy="1420" grid="1" gridSize="10" guides="1" tooltips="1" connect="1" arrows="1" fold="1" page="1" pageScale="1" pageWidth="850" pageHeight="1100" math="0" shadow="0">
      <root>
        <mxCell id="0" />
        <mxCell id="1" parent="0" />
        <mxCell id="-GP8V7sxONctWuWYLZ3t-3" style="edgeStyle=orthogonalEdgeStyle;rounded=0;orthogonalLoop=1;jettySize=auto;html=1;entryX=0.5;entryY=0;entryDx=0;entryDy=0;" edge="1" parent="1" source="-GP8V7sxONctWuWYLZ3t-1" target="-GP8V7sxONctWuWYLZ3t-14">
          <mxGeometry relative="1" as="geometry">
            <mxPoint x="410" y="150" as="targetPoint" />
          </mxGeometry>
        </mxCell>
        <mxCell id="-GP8V7sxONctWuWYLZ3t-1" value="&lt;font style=&quot;font-size: 14px;&quot;&gt;เริ่มต้น&lt;/font&gt;" style="ellipse;whiteSpace=wrap;html=1;" vertex="1" parent="1">
          <mxGeometry x="360" y="80" width="100" height="40" as="geometry" />
        </mxCell>
        <mxCell id="-GP8V7sxONctWuWYLZ3t-10" value="&lt;span style=&quot;font-weight: 400;&quot;&gt;คำนวณโบนัส&lt;/span&gt;" style="swimlane;whiteSpace=wrap;html=1;" vertex="1" parent="1">
          <mxGeometry x="610" y="480" width="1380" height="710" as="geometry" />
        </mxCell>
        <mxCell id="-GP8V7sxONctWuWYLZ3t-110" style="edgeStyle=orthogonalEdgeStyle;rounded=0;orthogonalLoop=1;jettySize=auto;html=1;entryX=0.5;entryY=0;entryDx=0;entryDy=0;" edge="1" parent="-GP8V7sxONctWuWYLZ3t-10" source="-GP8V7sxONctWuWYLZ3t-11" target="-GP8V7sxONctWuWYLZ3t-12">
          <mxGeometry relative="1" as="geometry" />
        </mxCell>
        <mxCell id="-GP8V7sxONctWuWYLZ3t-11" value="&lt;font style=&quot;font-size: 14px;&quot;&gt;เริ่มต้น&lt;/font&gt;" style="ellipse;whiteSpace=wrap;html=1;" vertex="1" parent="-GP8V7sxONctWuWYLZ3t-10">
          <mxGeometry x="105" y="65" width="100" height="40" as="geometry" />
        </mxCell>
        <mxCell id="-GP8V7sxONctWuWYLZ3t-32" style="edgeStyle=orthogonalEdgeStyle;rounded=0;orthogonalLoop=1;jettySize=auto;html=1;entryX=0.5;entryY=0;entryDx=0;entryDy=0;" edge="1" parent="-GP8V7sxONctWuWYLZ3t-10" source="-GP8V7sxONctWuWYLZ3t-12" target="-GP8V7sxONctWuWYLZ3t-31">
          <mxGeometry relative="1" as="geometry" />
        </mxCell>
        <mxCell id="-GP8V7sxONctWuWYLZ3t-105" style="edgeStyle=orthogonalEdgeStyle;rounded=0;orthogonalLoop=1;jettySize=auto;html=1;entryX=0;entryY=0.5;entryDx=0;entryDy=0;" edge="1" parent="-GP8V7sxONctWuWYLZ3t-10" source="-GP8V7sxONctWuWYLZ3t-12" target="-GP8V7sxONctWuWYLZ3t-25">
          <mxGeometry relative="1" as="geometry" />
        </mxCell>
        <mxCell id="-GP8V7sxONctWuWYLZ3t-12" value="เป็นเลข 1 ไหม" style="rhombus;whiteSpace=wrap;html=1;" vertex="1" parent="-GP8V7sxONctWuWYLZ3t-10">
          <mxGeometry x="81.25" y="155" width="147.5" height="50" as="geometry" />
        </mxCell>
        <mxCell id="-GP8V7sxONctWuWYLZ3t-126" style="edgeStyle=orthogonalEdgeStyle;rounded=0;orthogonalLoop=1;jettySize=auto;html=1;entryX=0;entryY=0.5;entryDx=0;entryDy=0;" edge="1" parent="-GP8V7sxONctWuWYLZ3t-10" source="-GP8V7sxONctWuWYLZ3t-23" target="-GP8V7sxONctWuWYLZ3t-125">
          <mxGeometry relative="1" as="geometry" />
        </mxCell>
        <mxCell id="-GP8V7sxONctWuWYLZ3t-148" style="edgeStyle=orthogonalEdgeStyle;rounded=0;orthogonalLoop=1;jettySize=auto;html=1;entryX=0.5;entryY=0;entryDx=0;entryDy=0;" edge="1" parent="-GP8V7sxONctWuWYLZ3t-10" source="-GP8V7sxONctWuWYLZ3t-23" target="-GP8V7sxONctWuWYLZ3t-147">
          <mxGeometry relative="1" as="geometry" />
        </mxCell>
        <mxCell id="-GP8V7sxONctWuWYLZ3t-23" value="ทำงาน 6 ปีขึ้นไปไหม" style="rhombus;whiteSpace=wrap;html=1;" vertex="1" parent="-GP8V7sxONctWuWYLZ3t-10">
          <mxGeometry x="925" y="335" width="167.5" height="60" as="geometry" />
        </mxCell>
        <mxCell id="-GP8V7sxONctWuWYLZ3t-28" style="edgeStyle=orthogonalEdgeStyle;rounded=0;orthogonalLoop=1;jettySize=auto;html=1;entryX=0;entryY=0.5;entryDx=0;entryDy=0;" edge="1" parent="-GP8V7sxONctWuWYLZ3t-10" source="-GP8V7sxONctWuWYLZ3t-25" target="-GP8V7sxONctWuWYLZ3t-27">
          <mxGeometry relative="1" as="geometry" />
        </mxCell>
        <mxCell id="-GP8V7sxONctWuWYLZ3t-50" style="edgeStyle=orthogonalEdgeStyle;rounded=0;orthogonalLoop=1;jettySize=auto;html=1;entryX=0.5;entryY=0;entryDx=0;entryDy=0;" edge="1" parent="-GP8V7sxONctWuWYLZ3t-10" source="-GP8V7sxONctWuWYLZ3t-25" target="-GP8V7sxONctWuWYLZ3t-49">
          <mxGeometry relative="1" as="geometry" />
        </mxCell>
        <mxCell id="-GP8V7sxONctWuWYLZ3t-25" value="ทำงานน้อยกว่า 1 ปีไหม" style="rhombus;whiteSpace=wrap;html=1;" vertex="1" parent="-GP8V7sxONctWuWYLZ3t-10">
          <mxGeometry x="295" y="335" width="167.5" height="60" as="geometry" />
        </mxCell>
        <mxCell id="-GP8V7sxONctWuWYLZ3t-30" style="edgeStyle=orthogonalEdgeStyle;rounded=0;orthogonalLoop=1;jettySize=auto;html=1;entryX=0;entryY=0.5;entryDx=0;entryDy=0;" edge="1" parent="-GP8V7sxONctWuWYLZ3t-10" source="-GP8V7sxONctWuWYLZ3t-27" target="-GP8V7sxONctWuWYLZ3t-29">
          <mxGeometry relative="1" as="geometry" />
        </mxCell>
        <mxCell id="-GP8V7sxONctWuWYLZ3t-53" style="edgeStyle=orthogonalEdgeStyle;rounded=0;orthogonalLoop=1;jettySize=auto;html=1;entryX=0.5;entryY=0;entryDx=0;entryDy=0;" edge="1" parent="-GP8V7sxONctWuWYLZ3t-10" source="-GP8V7sxONctWuWYLZ3t-27" target="-GP8V7sxONctWuWYLZ3t-52">
          <mxGeometry relative="1" as="geometry" />
        </mxCell>
        <mxCell id="-GP8V7sxONctWuWYLZ3t-27" value="ทำงานน้อยกว่า 4 ปีไหม" style="rhombus;whiteSpace=wrap;html=1;" vertex="1" parent="-GP8V7sxONctWuWYLZ3t-10">
          <mxGeometry x="505" y="335" width="167.5" height="60" as="geometry" />
        </mxCell>
        <mxCell id="-GP8V7sxONctWuWYLZ3t-48" style="edgeStyle=orthogonalEdgeStyle;rounded=0;orthogonalLoop=1;jettySize=auto;html=1;entryX=0;entryY=0.5;entryDx=0;entryDy=0;" edge="1" parent="-GP8V7sxONctWuWYLZ3t-10" source="-GP8V7sxONctWuWYLZ3t-29" target="-GP8V7sxONctWuWYLZ3t-23">
          <mxGeometry relative="1" as="geometry" />
        </mxCell>
        <mxCell id="-GP8V7sxONctWuWYLZ3t-55" style="edgeStyle=orthogonalEdgeStyle;rounded=0;orthogonalLoop=1;jettySize=auto;html=1;entryX=0.5;entryY=0;entryDx=0;entryDy=0;" edge="1" parent="-GP8V7sxONctWuWYLZ3t-10" source="-GP8V7sxONctWuWYLZ3t-29" target="-GP8V7sxONctWuWYLZ3t-54">
          <mxGeometry relative="1" as="geometry" />
        </mxCell>
        <mxCell id="-GP8V7sxONctWuWYLZ3t-29" value="ทำงานน้อยกว่า 6 ปีไหม" style="rhombus;whiteSpace=wrap;html=1;" vertex="1" parent="-GP8V7sxONctWuWYLZ3t-10">
          <mxGeometry x="715" y="335" width="167.5" height="60" as="geometry" />
        </mxCell>
        <mxCell id="-GP8V7sxONctWuWYLZ3t-34" style="edgeStyle=orthogonalEdgeStyle;rounded=0;orthogonalLoop=1;jettySize=auto;html=1;entryX=0.5;entryY=0;entryDx=0;entryDy=0;" edge="1" parent="-GP8V7sxONctWuWYLZ3t-10" source="-GP8V7sxONctWuWYLZ3t-31" target="-GP8V7sxONctWuWYLZ3t-33">
          <mxGeometry relative="1" as="geometry" />
        </mxCell>
        <mxCell id="-GP8V7sxONctWuWYLZ3t-104" style="edgeStyle=orthogonalEdgeStyle;rounded=0;orthogonalLoop=1;jettySize=auto;html=1;entryX=0;entryY=0.5;entryDx=0;entryDy=0;" edge="1" parent="-GP8V7sxONctWuWYLZ3t-10" source="-GP8V7sxONctWuWYLZ3t-31" target="-GP8V7sxONctWuWYLZ3t-25">
          <mxGeometry relative="1" as="geometry" />
        </mxCell>
        <mxCell id="-GP8V7sxONctWuWYLZ3t-31" value="เป็นเลข 2 ไหม" style="rhombus;whiteSpace=wrap;html=1;" vertex="1" parent="-GP8V7sxONctWuWYLZ3t-10">
          <mxGeometry x="81.25" y="250" width="147.5" height="50" as="geometry" />
        </mxCell>
        <mxCell id="-GP8V7sxONctWuWYLZ3t-36" style="edgeStyle=orthogonalEdgeStyle;rounded=0;orthogonalLoop=1;jettySize=auto;html=1;entryX=0.5;entryY=0;entryDx=0;entryDy=0;" edge="1" parent="-GP8V7sxONctWuWYLZ3t-10" source="-GP8V7sxONctWuWYLZ3t-33" target="-GP8V7sxONctWuWYLZ3t-35">
          <mxGeometry relative="1" as="geometry" />
        </mxCell>
        <mxCell id="-GP8V7sxONctWuWYLZ3t-103" style="edgeStyle=orthogonalEdgeStyle;rounded=0;orthogonalLoop=1;jettySize=auto;html=1;entryX=0;entryY=0.5;entryDx=0;entryDy=0;" edge="1" parent="-GP8V7sxONctWuWYLZ3t-10" source="-GP8V7sxONctWuWYLZ3t-33" target="-GP8V7sxONctWuWYLZ3t-25">
          <mxGeometry relative="1" as="geometry" />
        </mxCell>
        <mxCell id="-GP8V7sxONctWuWYLZ3t-33" value="เป็นเลข 3 ไหม" style="rhombus;whiteSpace=wrap;html=1;" vertex="1" parent="-GP8V7sxONctWuWYLZ3t-10">
          <mxGeometry x="81.25" y="340" width="147.5" height="50" as="geometry" />
        </mxCell>
        <mxCell id="-GP8V7sxONctWuWYLZ3t-137" style="edgeStyle=orthogonalEdgeStyle;rounded=0;orthogonalLoop=1;jettySize=auto;html=1;entryX=0.5;entryY=0;entryDx=0;entryDy=0;" edge="1" parent="-GP8V7sxONctWuWYLZ3t-10" source="-GP8V7sxONctWuWYLZ3t-35" target="-GP8V7sxONctWuWYLZ3t-38">
          <mxGeometry relative="1" as="geometry" />
        </mxCell>
        <mxCell id="-GP8V7sxONctWuWYLZ3t-35" value="กรุณาใส่แต่เลข 1, 2 และ 3" style="shape=parallelogram;perimeter=parallelogramPerimeter;whiteSpace=wrap;html=1;fixedSize=1;" vertex="1" parent="-GP8V7sxONctWuWYLZ3t-10">
          <mxGeometry x="50" y="440" width="210" height="40" as="geometry" />
        </mxCell>
        <mxCell id="-GP8V7sxONctWuWYLZ3t-38" value="&lt;span style=&quot;font-size: 14px;&quot;&gt;จบการทำงาน&lt;/span&gt;" style="ellipse;whiteSpace=wrap;html=1;" vertex="1" parent="-GP8V7sxONctWuWYLZ3t-10">
          <mxGeometry x="105" y="605" width="100" height="40" as="geometry" />
        </mxCell>
        <mxCell id="-GP8V7sxONctWuWYLZ3t-135" style="edgeStyle=orthogonalEdgeStyle;rounded=0;orthogonalLoop=1;jettySize=auto;html=1;entryX=0.5;entryY=0;entryDx=0;entryDy=0;" edge="1" parent="-GP8V7sxONctWuWYLZ3t-10" target="-GP8V7sxONctWuWYLZ3t-38">
          <mxGeometry relative="1" as="geometry">
            <mxPoint x="1009" y="480" as="sourcePoint" />
            <Array as="points">
              <mxPoint x="1009" y="540" />
              <mxPoint x="155" y="540" />
            </Array>
          </mxGeometry>
        </mxCell>
        <mxCell id="-GP8V7sxONctWuWYLZ3t-132" style="edgeStyle=orthogonalEdgeStyle;rounded=0;orthogonalLoop=1;jettySize=auto;html=1;entryX=0.5;entryY=0;entryDx=0;entryDy=0;" edge="1" parent="-GP8V7sxONctWuWYLZ3t-10" source="-GP8V7sxONctWuWYLZ3t-49" target="-GP8V7sxONctWuWYLZ3t-38">
          <mxGeometry relative="1" as="geometry">
            <Array as="points">
              <mxPoint x="379" y="540" />
              <mxPoint x="155" y="540" />
            </Array>
          </mxGeometry>
        </mxCell>
        <mxCell id="-GP8V7sxONctWuWYLZ3t-49" value="ไม่มีโบนัส" style="rounded=0;whiteSpace=wrap;html=1;" vertex="1" parent="-GP8V7sxONctWuWYLZ3t-10">
          <mxGeometry x="318.75" y="440" width="120" height="40" as="geometry" />
        </mxCell>
        <mxCell id="-GP8V7sxONctWuWYLZ3t-133" style="edgeStyle=orthogonalEdgeStyle;rounded=0;orthogonalLoop=1;jettySize=auto;html=1;entryX=0.5;entryY=0;entryDx=0;entryDy=0;" edge="1" parent="-GP8V7sxONctWuWYLZ3t-10" source="-GP8V7sxONctWuWYLZ3t-52" target="-GP8V7sxONctWuWYLZ3t-38">
          <mxGeometry relative="1" as="geometry">
            <Array as="points">
              <mxPoint x="589" y="540" />
              <mxPoint x="155" y="540" />
            </Array>
          </mxGeometry>
        </mxCell>
        <mxCell id="-GP8V7sxONctWuWYLZ3t-52" value="ฐานเงินเดือน*10%" style="rounded=0;whiteSpace=wrap;html=1;" vertex="1" parent="-GP8V7sxONctWuWYLZ3t-10">
          <mxGeometry x="528.75" y="440" width="120" height="40" as="geometry" />
        </mxCell>
        <mxCell id="-GP8V7sxONctWuWYLZ3t-134" style="edgeStyle=orthogonalEdgeStyle;rounded=0;orthogonalLoop=1;jettySize=auto;html=1;entryX=0.5;entryY=0;entryDx=0;entryDy=0;" edge="1" parent="-GP8V7sxONctWuWYLZ3t-10" source="-GP8V7sxONctWuWYLZ3t-54" target="-GP8V7sxONctWuWYLZ3t-38">
          <mxGeometry relative="1" as="geometry">
            <Array as="points">
              <mxPoint x="799" y="540" />
              <mxPoint x="155" y="540" />
            </Array>
          </mxGeometry>
        </mxCell>
        <mxCell id="-GP8V7sxONctWuWYLZ3t-54" value="ฐานเงินเดือน*15%" style="rounded=0;whiteSpace=wrap;html=1;" vertex="1" parent="-GP8V7sxONctWuWYLZ3t-10">
          <mxGeometry x="738.75" y="440" width="120" height="40" as="geometry" />
        </mxCell>
        <mxCell id="-GP8V7sxONctWuWYLZ3t-111" value="ไม่" style="text;html=1;align=center;verticalAlign=middle;resizable=0;points=[];autosize=1;strokeColor=none;fillColor=none;" vertex="1" parent="-GP8V7sxONctWuWYLZ3t-10">
          <mxGeometry x="150" y="205" width="40" height="30" as="geometry" />
        </mxCell>
        <mxCell id="-GP8V7sxONctWuWYLZ3t-112" value="ใช่" style="text;html=1;align=center;verticalAlign=middle;resizable=0;points=[];autosize=1;strokeColor=none;fillColor=none;" vertex="1" parent="-GP8V7sxONctWuWYLZ3t-10">
          <mxGeometry x="220" y="155" width="40" height="30" as="geometry" />
        </mxCell>
        <mxCell id="-GP8V7sxONctWuWYLZ3t-113" value="ไม่" style="text;html=1;align=center;verticalAlign=middle;resizable=0;points=[];autosize=1;strokeColor=none;fillColor=none;" vertex="1" parent="-GP8V7sxONctWuWYLZ3t-10">
          <mxGeometry x="150" y="300" width="40" height="30" as="geometry" />
        </mxCell>
        <mxCell id="-GP8V7sxONctWuWYLZ3t-114" value="ไม่" style="text;html=1;align=center;verticalAlign=middle;resizable=0;points=[];autosize=1;strokeColor=none;fillColor=none;" vertex="1" parent="-GP8V7sxONctWuWYLZ3t-10">
          <mxGeometry x="150" y="390" width="40" height="30" as="geometry" />
        </mxCell>
        <mxCell id="-GP8V7sxONctWuWYLZ3t-115" value="ไม่" style="text;html=1;align=center;verticalAlign=middle;resizable=0;points=[];autosize=1;strokeColor=none;fillColor=none;" vertex="1" parent="-GP8V7sxONctWuWYLZ3t-10">
          <mxGeometry x="450" y="340" width="40" height="30" as="geometry" />
        </mxCell>
        <mxCell id="-GP8V7sxONctWuWYLZ3t-116" value="ไม่" style="text;html=1;align=center;verticalAlign=middle;resizable=0;points=[];autosize=1;strokeColor=none;fillColor=none;" vertex="1" parent="-GP8V7sxONctWuWYLZ3t-10">
          <mxGeometry x="660" y="340" width="40" height="30" as="geometry" />
        </mxCell>
        <mxCell id="-GP8V7sxONctWuWYLZ3t-117" value="ไม่" style="text;html=1;align=center;verticalAlign=middle;resizable=0;points=[];autosize=1;strokeColor=none;fillColor=none;" vertex="1" parent="-GP8V7sxONctWuWYLZ3t-10">
          <mxGeometry x="870" y="340" width="40" height="30" as="geometry" />
        </mxCell>
        <mxCell id="-GP8V7sxONctWuWYLZ3t-118" value="ใช่" style="text;html=1;align=center;verticalAlign=middle;resizable=0;points=[];autosize=1;strokeColor=none;fillColor=none;" vertex="1" parent="-GP8V7sxONctWuWYLZ3t-10">
          <mxGeometry x="220" y="250" width="40" height="30" as="geometry" />
        </mxCell>
        <mxCell id="-GP8V7sxONctWuWYLZ3t-119" value="ใช่" style="text;html=1;align=center;verticalAlign=middle;resizable=0;points=[];autosize=1;strokeColor=none;fillColor=none;" vertex="1" parent="-GP8V7sxONctWuWYLZ3t-10">
          <mxGeometry x="220" y="340" width="40" height="30" as="geometry" />
        </mxCell>
        <mxCell id="-GP8V7sxONctWuWYLZ3t-120" value="ใช่" style="text;html=1;align=center;verticalAlign=middle;resizable=0;points=[];autosize=1;strokeColor=none;fillColor=none;" vertex="1" parent="-GP8V7sxONctWuWYLZ3t-10">
          <mxGeometry x="380" y="395" width="40" height="30" as="geometry" />
        </mxCell>
        <mxCell id="-GP8V7sxONctWuWYLZ3t-121" value="ใช่" style="text;html=1;align=center;verticalAlign=middle;resizable=0;points=[];autosize=1;strokeColor=none;fillColor=none;" vertex="1" parent="-GP8V7sxONctWuWYLZ3t-10">
          <mxGeometry x="590" y="395" width="40" height="30" as="geometry" />
        </mxCell>
        <mxCell id="-GP8V7sxONctWuWYLZ3t-122" value="ใช่" style="text;html=1;align=center;verticalAlign=middle;resizable=0;points=[];autosize=1;strokeColor=none;fillColor=none;" vertex="1" parent="-GP8V7sxONctWuWYLZ3t-10">
          <mxGeometry x="800" y="395" width="40" height="30" as="geometry" />
        </mxCell>
        <mxCell id="-GP8V7sxONctWuWYLZ3t-123" value="ใช่" style="text;html=1;align=center;verticalAlign=middle;resizable=0;points=[];autosize=1;strokeColor=none;fillColor=none;" vertex="1" parent="-GP8V7sxONctWuWYLZ3t-10">
          <mxGeometry x="1009.19" y="395" width="40" height="30" as="geometry" />
        </mxCell>
        <mxCell id="-GP8V7sxONctWuWYLZ3t-124" value="ไม่" style="text;html=1;align=center;verticalAlign=middle;resizable=0;points=[];autosize=1;strokeColor=none;fillColor=none;" vertex="1" parent="-GP8V7sxONctWuWYLZ3t-10">
          <mxGeometry x="1080" y="340" width="40" height="30" as="geometry" />
        </mxCell>
        <mxCell id="-GP8V7sxONctWuWYLZ3t-130" style="edgeStyle=orthogonalEdgeStyle;rounded=0;orthogonalLoop=1;jettySize=auto;html=1;entryX=0.5;entryY=0;entryDx=0;entryDy=0;" edge="1" parent="-GP8V7sxONctWuWYLZ3t-10" source="-GP8V7sxONctWuWYLZ3t-125" target="-GP8V7sxONctWuWYLZ3t-38">
          <mxGeometry relative="1" as="geometry">
            <Array as="points">
              <mxPoint x="1235" y="540" />
              <mxPoint x="155" y="540" />
            </Array>
          </mxGeometry>
        </mxCell>
        <mxCell id="-GP8V7sxONctWuWYLZ3t-125" value="กรุณาใส่แต่เลข" style="shape=parallelogram;perimeter=parallelogramPerimeter;whiteSpace=wrap;html=1;fixedSize=1;" vertex="1" parent="-GP8V7sxONctWuWYLZ3t-10">
          <mxGeometry x="1130" y="345" width="210" height="40" as="geometry" />
        </mxCell>
        <mxCell id="-GP8V7sxONctWuWYLZ3t-147" value="ฐานเงินเดือน*20%" style="rounded=0;whiteSpace=wrap;html=1;" vertex="1" parent="-GP8V7sxONctWuWYLZ3t-10">
          <mxGeometry x="948.75" y="440" width="120" height="40" as="geometry" />
        </mxCell>
        <mxCell id="-GP8V7sxONctWuWYLZ3t-22" style="edgeStyle=orthogonalEdgeStyle;rounded=0;orthogonalLoop=1;jettySize=auto;html=1;entryX=0.5;entryY=0;entryDx=0;entryDy=0;" edge="1" parent="1" source="-GP8V7sxONctWuWYLZ3t-14" target="-GP8V7sxONctWuWYLZ3t-16">
          <mxGeometry relative="1" as="geometry" />
        </mxCell>
        <mxCell id="-GP8V7sxONctWuWYLZ3t-14" value="ฐานเงินเดือน&amp;nbsp;&lt;div&gt;junior programmer = 20000&lt;/div&gt;&lt;div&gt;mid-level programmer = 35000&lt;/div&gt;&lt;div&gt;senior programmer = 50000&lt;/div&gt;" style="rounded=0;whiteSpace=wrap;html=1;" vertex="1" parent="1">
          <mxGeometry x="310" y="150" width="200" height="70" as="geometry" />
        </mxCell>
        <mxCell id="-GP8V7sxONctWuWYLZ3t-15" style="edgeStyle=orthogonalEdgeStyle;rounded=0;orthogonalLoop=1;jettySize=auto;html=1;entryX=0.5;entryY=0;entryDx=0;entryDy=0;" edge="1" parent="1" source="-GP8V7sxONctWuWYLZ3t-16" target="-GP8V7sxONctWuWYLZ3t-18">
          <mxGeometry relative="1" as="geometry" />
        </mxCell>
        <mxCell id="-GP8V7sxONctWuWYLZ3t-16" value="ใส่ตำแหน่งงาน&amp;nbsp;&lt;div&gt;&lt;span style=&quot;background-color: transparent; color: light-dark(rgb(0, 0, 0), rgb(255, 255, 255));&quot;&gt;1 =&lt;/span&gt;&lt;span style=&quot;background-color: transparent; text-wrap-mode: nowrap; color: rgba(0, 0, 0, 0); font-family: monospace; font-size: 0px; text-align: start;&quot;&gt;%3CmxGraphModel%3E%3Croot%3E%3CmxCell%20id%3D%220%22%2F%3E%3CmxCell%20id%3D%221%22%20parent%3D%220%22%2F%3E%3CmxCell%20id%3D%222%22%20value%3D%22%26lt%3Bfont%20style%3D%26quot%3Bfont-size%3A%2014px%3B%26quot%3B%26gt%3B%E0%B9%80%E0%B8%A3%E0%B8%B4%E0%B9%88%E0%B8%A1%E0%B8%95%E0%B9%89%E0%B8%99%26lt%3B%2Ffont%26gt%3B%22%20style%3D%22ellipse%3BwhiteSpace%3Dwrap%3Bhtml%3D1%3B%22%20vertex%3D%221%22%20parent%3D%221%22%3E%3CmxGeometry%20x%3D%22360%22%20y%3D%2280%22%20width%3D%22100%22%20height%3D%2240%22%20as%3D%22geometry%22%2F%3E%3C%2FmxCell%3E%3C%2Froot%3E%3C%2FmxGraphModel%3E&lt;/span&gt;&lt;span style=&quot;background-color: transparent; color: light-dark(rgb(0, 0, 0), rgb(255, 255, 255));&quot;&gt;&amp;nbsp;junior programmer&lt;/span&gt;&lt;span style=&quot;color: rgba(0, 0, 0, 0); font-family: monospace; font-size: 0px; text-align: start; text-wrap-mode: nowrap;&quot;&gt;%3CmxGraphModel%3E%3Croot%3E%3CmxCell%20id%3D%220%22%2F%3E%3CmxCell%20id%3D%221%22%20parent%3D%220%22%2F%3E%3CmxCell%20id%3D%222%22%20value%3D%22%26lt%3Bfont%20style%3D%26quot%3Bfont-size%3A%2014px%3B%26quot%3B%26gt%3B%E0%B9%80%E0%B8%A3%E0%B8%B4%E0%B9%88%E0%B8%A1%E0%B8%95%E0%B9%89%E0%B8%99%26lt%3B%2Ffont%26gt%3B%22%20style%3D%22ellipse%3BwhiteSpace%3Dwrap%3Bhtml%3D1%3B%22%20vertex%3D%221%22%20parent%3D%221%22%3E%3CmxGeometry%20x%3D%22360%22%20y%3D%2280%22%20width%3D%22100%22%20height%3D%2240%22%20as%3D%22geometry%22%2F%3E%3C%2FmxCell%3E%3C%2Froot%3E%3C%2FmxGraphModel%3E&lt;/span&gt;&lt;div&gt;&lt;div&gt;2 = mid-level programmer&amp;nbsp;&lt;/div&gt;&lt;div&gt;3 = senior programmer&lt;/div&gt;&lt;/div&gt;&lt;/div&gt;" style="shape=parallelogram;perimeter=parallelogramPerimeter;whiteSpace=wrap;html=1;fixedSize=1;align=center;" vertex="1" parent="1">
          <mxGeometry x="285" y="250" width="250" height="60" as="geometry" />
        </mxCell>
        <mxCell id="-GP8V7sxONctWuWYLZ3t-17" style="edgeStyle=orthogonalEdgeStyle;rounded=0;orthogonalLoop=1;jettySize=auto;html=1;entryX=0.5;entryY=0;entryDx=0;entryDy=0;" edge="1" parent="1" source="-GP8V7sxONctWuWYLZ3t-18" target="-GP8V7sxONctWuWYLZ3t-20">
          <mxGeometry relative="1" as="geometry" />
        </mxCell>
        <mxCell id="-GP8V7sxONctWuWYLZ3t-18" value="&lt;div style=&quot;text-align: left;&quot;&gt;&lt;span style=&quot;background-color: transparent; color: light-dark(rgb(0, 0, 0), rgb(255, 255, 255));&quot;&gt;ใส่จำนวนปีที่ทำงาน&lt;/span&gt;&lt;/div&gt;" style="shape=parallelogram;perimeter=parallelogramPerimeter;whiteSpace=wrap;html=1;fixedSize=1;align=center;" vertex="1" parent="1">
          <mxGeometry x="327.5" y="340" width="165" height="40" as="geometry" />
        </mxCell>
        <mxCell id="-GP8V7sxONctWuWYLZ3t-19" style="edgeStyle=orthogonalEdgeStyle;rounded=0;orthogonalLoop=1;jettySize=auto;html=1;entryX=0.5;entryY=0;entryDx=0;entryDy=0;" edge="1" parent="1" source="-GP8V7sxONctWuWYLZ3t-20" target="-GP8V7sxONctWuWYLZ3t-21">
          <mxGeometry relative="1" as="geometry" />
        </mxCell>
        <mxCell id="-GP8V7sxONctWuWYLZ3t-20" value="&lt;div style=&quot;text-align: left;&quot;&gt;&lt;span style=&quot;background-color: transparent; color: light-dark(rgb(0, 0, 0), rgb(255, 255, 255));&quot;&gt;ใส่จำนวนโปรเจ็คที่เสร็จ&lt;/span&gt;&lt;/div&gt;" style="shape=parallelogram;perimeter=parallelogramPerimeter;whiteSpace=wrap;html=1;fixedSize=1;align=center;" vertex="1" parent="1">
          <mxGeometry x="327.5" y="410" width="165" height="40" as="geometry" />
        </mxCell>
        <mxCell id="-GP8V7sxONctWuWYLZ3t-139" style="edgeStyle=orthogonalEdgeStyle;rounded=0;orthogonalLoop=1;jettySize=auto;html=1;entryX=0.5;entryY=0;entryDx=0;entryDy=0;" edge="1" parent="1" source="-GP8V7sxONctWuWYLZ3t-21" target="-GP8V7sxONctWuWYLZ3t-138">
          <mxGeometry relative="1" as="geometry" />
        </mxCell>
        <mxCell id="-GP8V7sxONctWuWYLZ3t-21" value="คำนวณโบนัส" style="shape=process;whiteSpace=wrap;html=1;backgroundOutline=1;" vertex="1" parent="1">
          <mxGeometry x="350" y="480" width="120" height="40" as="geometry" />
        </mxCell>
        <mxCell id="-GP8V7sxONctWuWYLZ3t-159" style="edgeStyle=orthogonalEdgeStyle;rounded=0;orthogonalLoop=1;jettySize=auto;html=1;entryX=0.5;entryY=0;entryDx=0;entryDy=0;" edge="1" parent="1" source="-GP8V7sxONctWuWYLZ3t-138" target="-GP8V7sxONctWuWYLZ3t-158">
          <mxGeometry relative="1" as="geometry" />
        </mxCell>
        <mxCell id="-GP8V7sxONctWuWYLZ3t-138" value="คำนวณโบนัสพิเศษ" style="shape=process;whiteSpace=wrap;html=1;backgroundOutline=1;" vertex="1" parent="1">
          <mxGeometry x="345" y="550" width="130" height="50" as="geometry" />
        </mxCell>
        <mxCell id="-GP8V7sxONctWuWYLZ3t-162" style="edgeStyle=orthogonalEdgeStyle;rounded=0;orthogonalLoop=1;jettySize=auto;html=1;entryX=0.5;entryY=0;entryDx=0;entryDy=0;" edge="1" parent="1" source="-GP8V7sxONctWuWYLZ3t-140" target="-GP8V7sxONctWuWYLZ3t-161">
          <mxGeometry relative="1" as="geometry" />
        </mxCell>
        <mxCell id="-GP8V7sxONctWuWYLZ3t-140" value="แสดง&lt;div&gt;ฐานเงินเดือน&lt;/div&gt;&lt;div&gt;โบนัส&lt;/div&gt;&lt;div&gt;โบนัสพิเศษ&lt;/div&gt;&lt;div&gt;&lt;span style=&quot;background-color: transparent; color: light-dark(rgb(0, 0, 0), rgb(255, 255, 255));&quot;&gt;เงินเดือนทั้งหมด&lt;/span&gt;&lt;span style=&quot;color: light-dark(rgba(0, 0, 0, 0), rgb(237, 237, 237)); font-family: monospace; font-size: 0px; text-align: start; text-wrap-mode: nowrap; background-color: transparent;&quot;&gt;3CmxGraphModel%3E%3Croot%3E%3CmxCell%20id%3D%220%22%2F%3E%3CmxCell%20id%3D%221%22%20parent%3D%220%22%2F%3E%3CmxCell%20id%3D%222%22%20value%3D%22%E0%B9%83%E0%B8%AA%E0%B9%88%E0%B8%95%E0%B8%B3%E0%B9%81%E0%B8%AB%E0%B8%99%E0%B9%88%E0%B8%87%E0%B8%87%E0%B8%B2%E0%B8%99%26amp%3Bnbsp%3B%26lt%3Bdiv%26gt%3B%26lt%3Bspan%20style%3D%26quot%3Bbackground-color%3A%20transparent%3B%20color%3A%20light-dark(rgb(0%2C%200%2C%200)%2C%20rgb(255%2C%20255%2C%20255))%3B%26quot%3B%26gt%3B1%20%3D%26lt%3B%2Fspan%26gt%3B%26lt%3Bspan%20style%3D%26quot%3Bbackground-color%3A%20transparent%3B%20text-wrap-mode%3A%20nowrap%3B%20color%3A%20rgba(0%2C%200%2C%200%2C%200)%3B%20font-family%3A%20monospace%3B%20font-size%3A%200px%3B%20text-align%3A%20start%3B%26quot%3B%26gt%3B%253CmxGraphModel%253E%253Croot%253E%253CmxCell%2520id%253D%25220%2522%252F%253E%253CmxCell%2520id%253D%25221%2522%2520parent%253D%25220%2522%252F%253E%253CmxCell%2520id%253D%25222%2522%2520value%253D%2522%2526lt%253Bfont%2520style%253D%2526quot%253Bfont-size%253A%252014px%253B%2526quot%253B%2526gt%253B%25E0%25B9%2580%25E0%25B8%25A3%25E0%25B8%25B4%25E0%25B9%2588%25E0%25B8%25A1%25E0%25B8%2595%25E0%25B9%2589%25E0%25B8%2599%2526lt%253B%252Ffont%2526gt%253B%2522%2520style%253D%2522ellipse%253BwhiteSpace%253Dwrap%253Bhtml%253D1%253B%2522%2520vertex%253D%25221%2522%2520parent%253D%25221%2522%253E%253CmxGeometry%2520x%253D%2522360%2522%2520y%253D%252280%2522%2520width%253D%2522100%2522%2520height%253D%252240%2522%2520as%253D%2522geometry%2522%252F%253E%253C%252FmxCell%253E%253C%252Froot%253E%253C%252FmxGraphModel%253E%26lt%3B%2Fspan%26gt%3B%26lt%3Bspan%20style%3D%26quot%3Bbackground-color%3A%20transparent%3B%20color%3A%20light-dark(rgb(0%2C%200%2C%200)%2C%20rgb(255%2C%20255%2C%20255))%3B%26quot%3B%26gt%3B%26amp%3Bnbsp%3Bjunior%20programmer%26lt%3B%2Fspan%26gt%3B%26lt%3Bspan%20style%3D%26quot%3Bcolor%3A%20rgba(0%2C%200%2C%200%2C%200)%3B%20font-family%3A%20monospace%3B%20font-size%3A%200px%3B%20text-align%3A%20start%3B%20text-wrap-mode%3A%20nowrap%3B%26quot%3B%26gt%3B%253CmxGraphModel%253E%253Croot%253E%253CmxCell%2520id%253D%25220%2522%252F%253E%253CmxCell%2520id%253D%25221%2522%2520parent%253D%25220%2522%252F%253E%253CmxCell%2520id%253D%25222%2522%2520value%253D%2522%2526lt%253Bfont%2520style%253D%2526quot%253Bfont-size%253A%252014px%253B%2526quot%253B%2526gt%253B%25E0%25B9%2580%25E0%25B8%25A3%25E0%25B8%25B4%25E0%25B9%2588%25E0%25B8%25A1%25E0%25B8%2595%25E0%25B9%2589%25E0%25B8%2599%2526lt%253B%252Ffont%2526gt%253B%2522%2520style%253D%2522ellipse%253BwhiteSpace%253Dwrap%253Bhtml%253D1%253B%2522%2520vertex%253D%25221%2522%2520parent%253D%25221%2522%253E%253CmxGeometry%2520x%253D%2522360%2522%2520y%253D%252280%2522%2520width%253D%2522100%2522%2520height%253D%252240%2522%2520as%253D%2522geometry%2522%252F%253E%253C%252FmxCell%253E%253C%252Froot%253E%253C%252FmxGraphModel%253E%26lt%3B%2Fspan%26gt%3B%26lt%3Bdiv%26gt%3B%26lt%3Bdiv%26gt%3B2%20%3D%20mid-level%20programmer%26amp%3Bnbsp%3B%26lt%3B%2Fdiv%26gt%3B%26lt%3Bdiv%26gt%3B3%20%3D%20senior%20programmer%26lt%3B%2Fdiv%26gt%3B%26lt%3B%2Fdiv%26gt%3B%26lt%3B%2Fdiv%26gt%3B%22%20style%3D%22shape%3Dparallelogram%3Bperimeter%3DparallelogramPerimeter%3BwhiteSpace%3Dwrap%3Bhtml%3D1%3BfixedSize%3D1%3Balign%3Dcenter%3B%22%20vertex%3D%221%22%20parent%3D%221%22%3E%3CmxGeometry%20x%3D%22285%22%20y%3D%22250%22%20width%3D%22250%22%20height%3D%2260%22%20as%3D%22geometry%22%2F%3E%3C%2FmxCell%3E%3C%2Froot%3E%3C%2FmxGraphMode&lt;/span&gt;&lt;/div&gt;" style="shape=parallelogram;perimeter=parallelogramPerimeter;whiteSpace=wrap;html=1;fixedSize=1;align=center;" vertex="1" parent="1">
          <mxGeometry x="309.38" y="720" width="201.25" height="80" as="geometry" />
        </mxCell>
        <mxCell id="-GP8V7sxONctWuWYLZ3t-142" value="&lt;span style=&quot;font-weight: 400;&quot;&gt;คำนวณโบนัสพิเศษ&lt;/span&gt;" style="swimlane;whiteSpace=wrap;html=1;" vertex="1" parent="1">
          <mxGeometry x="-220" y="570" width="430" height="430" as="geometry" />
        </mxCell>
        <mxCell id="-GP8V7sxONctWuWYLZ3t-145" style="edgeStyle=orthogonalEdgeStyle;rounded=0;orthogonalLoop=1;jettySize=auto;html=1;entryX=0.5;entryY=0;entryDx=0;entryDy=0;" edge="1" parent="-GP8V7sxONctWuWYLZ3t-142" source="-GP8V7sxONctWuWYLZ3t-143" target="-GP8V7sxONctWuWYLZ3t-144">
          <mxGeometry relative="1" as="geometry" />
        </mxCell>
        <mxCell id="-GP8V7sxONctWuWYLZ3t-143" value="&lt;font style=&quot;font-size: 14px;&quot;&gt;เริ่มต้น&lt;/font&gt;" style="ellipse;whiteSpace=wrap;html=1;" vertex="1" parent="-GP8V7sxONctWuWYLZ3t-142">
          <mxGeometry x="94.37" y="55" width="100" height="40" as="geometry" />
        </mxCell>
        <mxCell id="-GP8V7sxONctWuWYLZ3t-151" style="edgeStyle=orthogonalEdgeStyle;rounded=0;orthogonalLoop=1;jettySize=auto;html=1;entryX=0.5;entryY=0;entryDx=0;entryDy=0;" edge="1" parent="-GP8V7sxONctWuWYLZ3t-142" source="-GP8V7sxONctWuWYLZ3t-144" target="-GP8V7sxONctWuWYLZ3t-150">
          <mxGeometry relative="1" as="geometry" />
        </mxCell>
        <mxCell id="-GP8V7sxONctWuWYLZ3t-155" style="edgeStyle=orthogonalEdgeStyle;rounded=0;orthogonalLoop=1;jettySize=auto;html=1;entryX=0.5;entryY=0;entryDx=0;entryDy=0;" edge="1" parent="-GP8V7sxONctWuWYLZ3t-142" source="-GP8V7sxONctWuWYLZ3t-144" target="-GP8V7sxONctWuWYLZ3t-154">
          <mxGeometry relative="1" as="geometry" />
        </mxCell>
        <mxCell id="-GP8V7sxONctWuWYLZ3t-144" value="ทำโปรเจคได้มากกว่า 5 หรือไม่" style="rhombus;whiteSpace=wrap;html=1;" vertex="1" parent="-GP8V7sxONctWuWYLZ3t-142">
          <mxGeometry x="40" y="130" width="208.75" height="70" as="geometry" />
        </mxCell>
        <mxCell id="-GP8V7sxONctWuWYLZ3t-153" style="edgeStyle=orthogonalEdgeStyle;rounded=0;orthogonalLoop=1;jettySize=auto;html=1;entryX=0.5;entryY=0;entryDx=0;entryDy=0;" edge="1" parent="-GP8V7sxONctWuWYLZ3t-142" source="-GP8V7sxONctWuWYLZ3t-150" target="-GP8V7sxONctWuWYLZ3t-152">
          <mxGeometry relative="1" as="geometry" />
        </mxCell>
        <mxCell id="-GP8V7sxONctWuWYLZ3t-150" value="ฐานเงินเดือน*5%" style="rounded=0;whiteSpace=wrap;html=1;" vertex="1" parent="-GP8V7sxONctWuWYLZ3t-142">
          <mxGeometry x="84.37" y="240" width="120" height="40" as="geometry" />
        </mxCell>
        <mxCell id="-GP8V7sxONctWuWYLZ3t-152" value="&lt;span style=&quot;font-size: 14px;&quot;&gt;จบการทำงาน&lt;/span&gt;" style="ellipse;whiteSpace=wrap;html=1;" vertex="1" parent="-GP8V7sxONctWuWYLZ3t-142">
          <mxGeometry x="94.37" y="360" width="100" height="40" as="geometry" />
        </mxCell>
        <mxCell id="-GP8V7sxONctWuWYLZ3t-156" style="edgeStyle=orthogonalEdgeStyle;rounded=0;orthogonalLoop=1;jettySize=auto;html=1;entryX=0.5;entryY=0;entryDx=0;entryDy=0;" edge="1" parent="-GP8V7sxONctWuWYLZ3t-142" source="-GP8V7sxONctWuWYLZ3t-154" target="-GP8V7sxONctWuWYLZ3t-152">
          <mxGeometry relative="1" as="geometry">
            <Array as="points">
              <mxPoint x="329.37" y="320" />
              <mxPoint x="144.37" y="320" />
            </Array>
          </mxGeometry>
        </mxCell>
        <mxCell id="-GP8V7sxONctWuWYLZ3t-154" value="ไม่มีโบนัส" style="rounded=0;whiteSpace=wrap;html=1;" vertex="1" parent="-GP8V7sxONctWuWYLZ3t-142">
          <mxGeometry x="269.37" y="240" width="120" height="40" as="geometry" />
        </mxCell>
        <mxCell id="-GP8V7sxONctWuWYLZ3t-160" style="edgeStyle=orthogonalEdgeStyle;rounded=0;orthogonalLoop=1;jettySize=auto;html=1;entryX=0.5;entryY=0;entryDx=0;entryDy=0;" edge="1" parent="1" source="-GP8V7sxONctWuWYLZ3t-158" target="-GP8V7sxONctWuWYLZ3t-140">
          <mxGeometry relative="1" as="geometry" />
        </mxCell>
        <mxCell id="-GP8V7sxONctWuWYLZ3t-158" value="เงินเดือนทั้งหมด = ฐานเงินเดือน + โบนัส + โบนัสพิเศษ&amp;nbsp;" style="rounded=0;whiteSpace=wrap;html=1;" vertex="1" parent="1">
          <mxGeometry x="265" y="630" width="290" height="60" as="geometry" />
        </mxCell>
        <mxCell id="-GP8V7sxONctWuWYLZ3t-161" value="&lt;span style=&quot;font-size: 14px;&quot;&gt;จบการทำงาน&lt;/span&gt;" style="ellipse;whiteSpace=wrap;html=1;" vertex="1" parent="1">
          <mxGeometry x="360.01" y="830" width="100" height="40" as="geometry" />
        </mxCell>
      </root>
    </mxGraphModel>
  </diagram>
</mxfile>
